<svg xmlns="http://www.w3.org/2000/svg" width="100%" height="100%">
    <g fill="transparent" stroke="black" stroke-opacity=".2">
        <rect x="6.8666%" y="0" width=".01" height="100%"></rect>
        <rect x="8.4666%" y="0" width=".01" height="100%"></rect>
        <rect x="15.3332%" y="0" width=".01" height="100%"></rect>
        <rect x="16.9332%" y="0" width=".01" height="100%"></rect>
        <rect x="23.7998%" y="0" width=".01" height="100%"></rect>
        <rect x="25.3998%" y="0" width=".01" height="100%"></rect>
        <rect x="32.2664%" y="0" width=".01" height="100%"></rect>
        <rect x="33.8664%" y="0" width=".01" height="100%"></rect>
        <rect x="40.733%" y="0" width=".01" height="100%"></rect>
        <rect x="42.333%" y="0" width=".01" height="100%"></rect>
        <rect x="49.1996%" y="0" width=".01" height="100%"></rect>
        <rect x="50.7996%" y="0" width=".01" height="100%"></rect>
        <rect x="57.6662%" y="0" width=".01" height="100%"></rect>
        <rect x="59.2662%" y="0" width=".01" height="100%"></rect>
        <rect x="66.1328%" y="0" width=".01" height="100%"></rect>
        <rect x="67.7328%" y="0" width=".01" height="100%"></rect>
        <rect x="74.5994%" y="0" width=".01" height="100%"></rect>
        <rect x="76.1994%" y="0" width=".01" height="100%"></rect>
        <rect x="83.066%" y="0" width=".01" height="100%"></rect>
        <rect x="84.666%" y="0" width=".01" height="100%"></rect>
        <rect x="91.5326%" y="0" width=".01" height="100%"></rect>
        <rect x="93.1326%" y="0" width=".01" height="100%"></rect>
        <rect x="99.9992%" y="0" width=".01" height="100%"></rect>
        <rect x="101.5992%" y="0" width=".01" height="100%"></rect>
    </g>
</svg>